<svg width="23" height="22" viewBox="0 0 23 22" fill="none" xmlns="http://www.w3.org/2000/svg">
<mask id="path-1-inside-1_1_40" fill="white">
<path fill-rule="evenodd" clip-rule="evenodd" d="M6.31502 0.0870693C6.13608 0.135624 5.86621 0.236153 5.71531 0.310517C5.56436 0.384882 5.32714 0.536009 5.18809 0.646401C5.04905 0.756748 4.84128 0.971311 4.72636 1.12319C4.61144 1.27508 4.45022 1.53984 4.36809 1.71158C4.28595 1.88327 4.18924 2.16314 4.15312 2.3335C4.11705 2.50382 4.08755 2.78311 4.08755 2.95414C4.08755 3.12517 4.11647 3.40174 4.15188 3.56873C4.18724 3.73572 4.26578 3.98058 4.32633 4.11291L4.43645 4.35346L2.53985 4.35444C0.794735 4.35533 0.628993 4.36195 0.465516 4.43702C0.367785 4.48189 0.253617 4.55714 0.211771 4.60423C0.169969 4.65137 0.104978 4.76349 0.0673958 4.8534C0.00844636 4.99453 -0.00079365 5.38395 5.0389e-05 7.69488C0.000983274 10.2296 0.00555885 10.3827 0.0853872 10.5587C0.137673 10.6738 0.239624 10.7907 0.353214 10.8659C0.516158 10.9738 0.588434 10.9896 1.00086 11.0079L1.46504 11.0286V16.1396C1.46504 21.2379 1.46526 21.2511 1.55815 21.4429C1.62025 21.5712 1.71407 21.6721 1.8397 21.7457L2.02814 21.8562H11.3656C19.1514 21.8562 20.7272 21.8461 20.8481 21.7956C20.9279 21.7623 21.0464 21.6717 21.1115 21.5943C21.1766 21.5169 21.2506 21.3792 21.2758 21.2884C21.3061 21.1792 21.3218 19.4108 21.3219 16.076L21.3222 11.0288L21.765 11.0075C22.1526 10.9888 22.2306 10.9711 22.3904 10.8654C22.5032 10.7907 22.6052 10.6735 22.6574 10.5587C22.7373 10.3826 22.7417 10.2306 22.7417 7.6852C22.7417 5.17129 22.7365 4.98609 22.6601 4.81991C22.6153 4.72218 22.54 4.60801 22.4929 4.56616C22.4458 4.52436 22.3337 4.45937 22.2438 4.42179C22.1054 4.36399 21.7928 4.35346 20.213 4.35346C19.186 4.35346 18.3458 4.34596 18.3458 4.33676C18.3458 4.32761 18.3933 4.21264 18.4515 4.08128C18.5095 3.94992 18.5825 3.72257 18.6135 3.57597C18.6445 3.42942 18.6689 3.12961 18.6676 2.90971C18.6663 2.68982 18.6337 2.3881 18.595 2.23924C18.5563 2.09042 18.4815 1.87052 18.4288 1.75058C18.376 1.63068 18.257 1.42052 18.1643 1.28356C18.0716 1.1466 17.8642 0.913961 17.7034 0.766565C17.5426 0.619214 17.2725 0.42584 17.1032 0.336905C16.934 0.24797 16.6413 0.135801 16.453 0.0876024C16.2332 0.0314071 15.9631 0 15.6994 0C15.4734 0 15.1418 0.0282975 14.9625 0.0628587C14.7832 0.0974199 14.5365 0.159612 14.4144 0.201059C14.2922 0.242506 14.0742 0.334684 13.93 0.405849C13.7858 0.47706 13.5259 0.629298 13.3525 0.744176C13.1791 0.859054 12.8756 1.11342 12.6779 1.30946C12.4803 1.5055 12.2072 1.81579 12.0711 1.99904C11.935 2.18228 11.7243 2.49644 11.6029 2.69715L11.3822 3.06204L11.1785 2.71718C11.0666 2.5275 10.8565 2.21338 10.7118 2.01907C10.5671 1.82481 10.2673 1.49111 10.0457 1.27748C9.824 1.06384 9.50682 0.80157 9.3409 0.6946C9.17493 0.587673 8.93536 0.447829 8.80849 0.383904C8.68166 0.319935 8.40179 0.21563 8.18656 0.152016C7.88009 0.0614816 7.67023 0.03234 7.21783 0.017636C6.73917 0.00204348 6.58467 0.0139489 6.31502 0.0870693ZM7.65304 1.62095C7.79271 1.65734 8.03179 1.75005 8.18434 1.82699C8.33689 1.90389 8.57589 2.05466 8.71542 2.16194C8.855 2.26927 9.08342 2.49138 9.223 2.65561C9.36258 2.8198 9.58083 3.11406 9.70796 3.30952C9.8351 3.50498 10.0115 3.80933 10.1 3.98586C10.1884 4.1624 10.2608 4.31815 10.2608 4.33205C10.2608 4.34591 9.45617 4.35142 8.47278 4.34427C6.70301 4.33139 6.6824 4.33019 6.45313 4.2265C6.32577 4.16893 6.13377 4.02798 6.02653 3.91332C5.91072 3.78951 5.791 3.59752 5.73174 3.44052C5.65262 3.23094 5.63623 3.11459 5.65258 2.87813C5.66639 2.67738 5.7122 2.50009 5.79273 2.3355C5.85853 2.20103 6.0033 2.01099 6.11449 1.91313C6.22564 1.81526 6.41946 1.69563 6.54513 1.6473C6.69124 1.5911 6.88634 1.55858 7.08633 1.55712C7.25834 1.55583 7.51333 1.58457 7.65304 1.62095ZM16.311 1.67999C16.4257 1.73637 16.6038 1.86617 16.7066 1.96852C16.8095 2.07083 16.9438 2.26331 17.005 2.39632C17.0929 2.58711 17.1159 2.70701 17.1142 2.9648C17.1125 3.23995 17.0897 3.33697 16.97 3.58006C16.8698 3.78369 16.7628 3.92012 16.6067 4.04357C16.485 4.13974 16.2831 4.24885 16.1581 4.28599C15.9718 4.34129 15.6193 4.35346 14.2026 4.35346H12.4743L12.7224 3.88467C12.8589 3.62679 13.0536 3.29197 13.1551 3.14058C13.2565 2.98914 13.5314 2.67498 13.7659 2.44243C14.0923 2.11867 14.2704 1.98074 14.5254 1.85395C14.7087 1.76293 14.9685 1.65876 15.1029 1.62246C15.2502 1.58271 15.4972 1.56067 15.7249 1.56703C16.0142 1.57502 16.1512 1.60141 16.311 1.67999ZM10.6162 7.6852V9.46212H6.08504H1.55388V7.6852V5.90827H6.08504H10.6162V7.6852ZM21.1889 7.6852V9.46212H16.6799H12.171V7.6852V5.90827H16.6799H21.1889V7.6852ZM10.6162 15.6591V20.3014H6.81802H3.01984V15.6591V11.0169H6.81802H10.6162V15.6591ZM19.7674 15.6591V20.3014H15.9692H12.171V15.6591V11.0169H15.9692H19.7674V15.6591Z"/>
</mask>
<path fill-rule="evenodd" clip-rule="evenodd" d="M6.31502 0.0870693C6.13608 0.135624 5.86621 0.236153 5.71531 0.310517C5.56436 0.384882 5.32714 0.536009 5.18809 0.646401C5.04905 0.756748 4.84128 0.971311 4.72636 1.12319C4.61144 1.27508 4.45022 1.53984 4.36809 1.71158C4.28595 1.88327 4.18924 2.16314 4.15312 2.3335C4.11705 2.50382 4.08755 2.78311 4.08755 2.95414C4.08755 3.12517 4.11647 3.40174 4.15188 3.56873C4.18724 3.73572 4.26578 3.98058 4.32633 4.11291L4.43645 4.35346L2.53985 4.35444C0.794735 4.35533 0.628993 4.36195 0.465516 4.43702C0.367785 4.48189 0.253617 4.55714 0.211771 4.60423C0.169969 4.65137 0.104978 4.76349 0.0673958 4.8534C0.00844636 4.99453 -0.00079365 5.38395 5.0389e-05 7.69488C0.000983274 10.2296 0.00555885 10.3827 0.0853872 10.5587C0.137673 10.6738 0.239624 10.7907 0.353214 10.8659C0.516158 10.9738 0.588434 10.9896 1.00086 11.0079L1.46504 11.0286V16.1396C1.46504 21.2379 1.46526 21.2511 1.55815 21.4429C1.62025 21.5712 1.71407 21.6721 1.8397 21.7457L2.02814 21.8562H11.3656C19.1514 21.8562 20.7272 21.8461 20.8481 21.7956C20.9279 21.7623 21.0464 21.6717 21.1115 21.5943C21.1766 21.5169 21.2506 21.3792 21.2758 21.2884C21.3061 21.1792 21.3218 19.4108 21.3219 16.076L21.3222 11.0288L21.765 11.0075C22.1526 10.9888 22.2306 10.9711 22.3904 10.8654C22.5032 10.7907 22.6052 10.6735 22.6574 10.5587C22.7373 10.3826 22.7417 10.2306 22.7417 7.6852C22.7417 5.17129 22.7365 4.98609 22.6601 4.81991C22.6153 4.72218 22.54 4.60801 22.4929 4.56616C22.4458 4.52436 22.3337 4.45937 22.2438 4.42179C22.1054 4.36399 21.7928 4.35346 20.213 4.35346C19.186 4.35346 18.3458 4.34596 18.3458 4.33676C18.3458 4.32761 18.3933 4.21264 18.4515 4.08128C18.5095 3.94992 18.5825 3.72257 18.6135 3.57597C18.6445 3.42942 18.6689 3.12961 18.6676 2.90971C18.6663 2.68982 18.6337 2.3881 18.595 2.23924C18.5563 2.09042 18.4815 1.87052 18.4288 1.75058C18.376 1.63068 18.257 1.42052 18.1643 1.28356C18.0716 1.1466 17.8642 0.913961 17.7034 0.766565C17.5426 0.619214 17.2725 0.42584 17.1032 0.336905C16.934 0.24797 16.6413 0.135801 16.453 0.0876024C16.2332 0.0314071 15.9631 0 15.6994 0C15.4734 0 15.1418 0.0282975 14.9625 0.0628587C14.7832 0.0974199 14.5365 0.159612 14.4144 0.201059C14.2922 0.242506 14.0742 0.334684 13.93 0.405849C13.7858 0.47706 13.5259 0.629298 13.3525 0.744176C13.1791 0.859054 12.8756 1.11342 12.6779 1.30946C12.4803 1.5055 12.2072 1.81579 12.0711 1.99904C11.935 2.18228 11.7243 2.49644 11.6029 2.69715L11.3822 3.06204L11.1785 2.71718C11.0666 2.5275 10.8565 2.21338 10.7118 2.01907C10.5671 1.82481 10.2673 1.49111 10.0457 1.27748C9.824 1.06384 9.50682 0.80157 9.3409 0.6946C9.17493 0.587673 8.93536 0.447829 8.80849 0.383904C8.68166 0.319935 8.40179 0.21563 8.18656 0.152016C7.88009 0.0614816 7.67023 0.03234 7.21783 0.017636C6.73917 0.00204348 6.58467 0.0139489 6.31502 0.0870693ZM7.65304 1.62095C7.79271 1.65734 8.03179 1.75005 8.18434 1.82699C8.33689 1.90389 8.57589 2.05466 8.71542 2.16194C8.855 2.26927 9.08342 2.49138 9.223 2.65561C9.36258 2.8198 9.58083 3.11406 9.70796 3.30952C9.8351 3.50498 10.0115 3.80933 10.1 3.98586C10.1884 4.1624 10.2608 4.31815 10.2608 4.33205C10.2608 4.34591 9.45617 4.35142 8.47278 4.34427C6.70301 4.33139 6.6824 4.33019 6.45313 4.2265C6.32577 4.16893 6.13377 4.02798 6.02653 3.91332C5.91072 3.78951 5.791 3.59752 5.73174 3.44052C5.65262 3.23094 5.63623 3.11459 5.65258 2.87813C5.66639 2.67738 5.7122 2.50009 5.79273 2.3355C5.85853 2.20103 6.0033 2.01099 6.11449 1.91313C6.22564 1.81526 6.41946 1.69563 6.54513 1.6473C6.69124 1.5911 6.88634 1.55858 7.08633 1.55712C7.25834 1.55583 7.51333 1.58457 7.65304 1.62095ZM16.311 1.67999C16.4257 1.73637 16.6038 1.86617 16.7066 1.96852C16.8095 2.07083 16.9438 2.26331 17.005 2.39632C17.0929 2.58711 17.1159 2.70701 17.1142 2.9648C17.1125 3.23995 17.0897 3.33697 16.97 3.58006C16.8698 3.78369 16.7628 3.92012 16.6067 4.04357C16.485 4.13974 16.2831 4.24885 16.1581 4.28599C15.9718 4.34129 15.6193 4.35346 14.2026 4.35346H12.4743L12.7224 3.88467C12.8589 3.62679 13.0536 3.29197 13.1551 3.14058C13.2565 2.98914 13.5314 2.67498 13.7659 2.44243C14.0923 2.11867 14.2704 1.98074 14.5254 1.85395C14.7087 1.76293 14.9685 1.65876 15.1029 1.62246C15.2502 1.58271 15.4972 1.56067 15.7249 1.56703C16.0142 1.57502 16.1512 1.60141 16.311 1.67999ZM10.6162 7.6852V9.46212H6.08504H1.55388V7.6852V5.90827H6.08504H10.6162V7.6852ZM21.1889 7.6852V9.46212H16.6799H12.171V7.6852V5.90827H16.6799H21.1889V7.6852ZM10.6162 15.6591V20.3014H6.81802H3.01984V15.6591V11.0169H6.81802H10.6162V15.6591ZM19.7674 15.6591V20.3014H15.9692H12.171V15.6591V11.0169H15.9692H19.7674V15.6591Z" fill="#05141F" stroke="#F3C300" stroke-width="0.245857" mask="url(#path-1-inside-1_1_40)"/>
</svg>
