<svg width="31" height="30" viewBox="0 0 31 30" fill="none" xmlns="http://www.w3.org/2000/svg">
<path d="M25.5 15V27.5H5.5V15" stroke="white" stroke-linecap="round" stroke-linejoin="round"/>
<path d="M28 8.75H3V15H28V8.75Z" stroke="white" stroke-linecap="round" stroke-linejoin="round"/>
<path d="M15.5 27.5V8.75" stroke="white" stroke-linecap="round" stroke-linejoin="round"/>
<path d="M15.5 8.75H9.875C9.0462 8.75 8.25134 8.42076 7.66529 7.83471C7.07924 7.24866 6.75 6.4538 6.75 5.625C6.75 4.7962 7.07924 4.00134 7.66529 3.41529C8.25134 2.82924 9.0462 2.5 9.875 2.5C14.25 2.5 15.5 8.75 15.5 8.75Z" stroke="white" stroke-linecap="round" stroke-linejoin="round"/>
<path d="M15.5 8.75H21.125C21.9538 8.75 22.7487 8.42076 23.3347 7.83471C23.9208 7.24866 24.25 6.4538 24.25 5.625C24.25 4.7962 23.9208 4.00134 23.3347 3.41529C22.7487 2.82924 21.9538 2.5 21.125 2.5C16.75 2.5 15.5 8.75 15.5 8.75Z" stroke="white" stroke-linecap="round" stroke-linejoin="round"/>
</svg>
