<svg width="60" height="60" viewBox="0 0 60 60" fill="none" xmlns="http://www.w3.org/2000/svg">
<path d="M51 51.15V30.9C51 18.75 41.25 9 29.25 9C17.4 9 7.5 18.9 7.5 30.9V51.15" stroke="#05141F" stroke-width="2" stroke-linecap="round" stroke-linejoin="round"/>
<path d="M17.25 30.4502H13.2001C12.7501 30.4502 12.2999 30.9002 12.2999 31.3502V32.4001C12.2999 33.3001 13.35 33.3002 14.4 33.4502C13.95 34.2002 13.35 40.5001 13.35 40.5001C13.35 40.6501 13.35 49.2002 13.35 49.2002C13.35 50.1002 14.1 50.7002 15 50.7002H18C18.9 50.7002 19.65 49.9502 19.65 49.2002V46.2002H39V49.2002C39 50.1002 39.75 50.7002 40.65 50.7002H43.7999C44.6999 50.7002 45.4501 49.9502 45.4501 49.2002C45.4501 49.2002 45.4501 40.6501 45.4501 40.5001C45.4501 40.5001 44.85 34.2002 44.4 33.4502C45.3 33.3002 46.5 33.3001 46.5 32.4001V31.3502C46.5 30.9002 46.05 30.4502 45.6 30.4502H41.5499" stroke="#05141F" stroke-width="2" stroke-linecap="round" stroke-linejoin="round"/>
<path d="M41.4 30.3002C41.4 31.9502 39.45 32.8502 37.5 32.8502H21.15C19.2 32.8502 17.25 31.9502 17.25 30.3002L18.75 25.0502C19.05 23.5502 20.2501 22.2002 22.2001 22.2002H36.2999C38.2499 22.2002 39.45 23.4002 39.75 25.0502L41.4 30.3002Z" stroke="#05141F" stroke-width="2" stroke-linecap="round" stroke-linejoin="round"/>
<path d="M25.5 42H33" stroke="#05141F" stroke-width="2" stroke-linecap="round" stroke-linejoin="round"/>
<path d="M25.5 39H33" stroke="#05141F" stroke-width="2" stroke-linecap="round" stroke-linejoin="round"/>
<path d="M41.85 40.6499C41.85 41.8499 40.95 42.7499 39.75 42.7499C38.55 42.7499 37.65 41.8499 37.65 40.6499C37.65 39.4499 38.55 38.55 39.75 38.55C40.8 38.55 41.85 39.4499 41.85 40.6499Z" stroke="#05141F" stroke-width="2" stroke-linecap="round" stroke-linejoin="round"/>
<path d="M21.15 40.6499C21.15 41.8499 20.2499 42.7499 19.0499 42.7499C17.8499 42.7499 16.9501 41.8499 16.9501 40.6499C16.9501 39.4499 17.8499 38.55 19.0499 38.55C20.0999 38.55 21.15 39.4499 21.15 40.6499Z" stroke="#05141F" stroke-width="2" stroke-linecap="round" stroke-linejoin="round"/>
<path d="M27.2999 25.3501H31.2001" stroke="#05141F" stroke-width="2" stroke-linecap="round" stroke-linejoin="round"/>
<path d="M45.15 46.3501H13.35" stroke="#05141F" stroke-width="2" stroke-linecap="round" stroke-linejoin="round"/>
</svg>
