<svg width="60" height="60" viewBox="0 0 60 60" fill="none" xmlns="http://www.w3.org/2000/svg">
<path d="M51 50.7001V15.75L29.25 9L7.5 15.75V50.7001H12V22.35H46.5V50.7001H51Z" stroke="#05141F" stroke-width="2" stroke-miterlimit="10" stroke-linecap="round" stroke-linejoin="round"/>
<path d="M26.4 18H32.1" stroke="#05141F" stroke-width="2" stroke-miterlimit="10" stroke-linecap="round" stroke-linejoin="round"/>
<path d="M17.1 18H22.8" stroke="#05141F" stroke-width="2" stroke-miterlimit="10" stroke-linecap="round" stroke-linejoin="round"/>
<path d="M35.7 18H41.25" stroke="#05141F" stroke-width="2" stroke-miterlimit="10" stroke-linecap="round" stroke-linejoin="round"/>
<path d="M40.5 43.3501H33V50.8501H40.5V43.3501Z" stroke="#05141F" stroke-width="2" stroke-miterlimit="10" stroke-linecap="round" stroke-linejoin="round"/>
<path d="M40.5 35.8501H33V43.3501H40.5V35.8501Z" stroke="#05141F" stroke-width="2" stroke-miterlimit="10" stroke-linecap="round" stroke-linejoin="round"/>
<path d="M33 43.3501H25.5V50.8501H33V43.3501Z" stroke="#05141F" stroke-width="2" stroke-miterlimit="10" stroke-linecap="round" stroke-linejoin="round"/>
<path d="M33 35.8501H25.5V43.3501H33V35.8501Z" stroke="#05141F" stroke-width="2" stroke-miterlimit="10" stroke-linecap="round" stroke-linejoin="round"/>
<path d="M25.5 43.3501H18V50.8501H25.5V43.3501Z" stroke="#05141F" stroke-width="2" stroke-miterlimit="10" stroke-linecap="round" stroke-linejoin="round"/>
<path d="M33 28.3501H25.5V35.8501H33V28.3501Z" stroke="#05141F" stroke-width="2" stroke-miterlimit="10" stroke-linecap="round" stroke-linejoin="round"/>
</svg>
