<svg width="60" height="60" viewBox="0 0 60 60" fill="none" xmlns="http://www.w3.org/2000/svg">
<path d="M38.851 36.0379L34.4759 32.1677" stroke="#05141F" stroke-width="2" stroke-linecap="round" stroke-linejoin="round"/>
<path d="M34.8123 38.3939L31.1102 35.365" stroke="#05141F" stroke-width="2" stroke-miterlimit="10" stroke-linecap="round" stroke-linejoin="round"/>
<path d="M14.7879 30.3157C16.134 34.0176 26.5667 42.2628 26.5667 42.2628C29.0907 44.4502 31.4464 41.0849 29.259 39.4022L27.5763 37.8878" stroke="#05141F" stroke-width="2" stroke-linecap="round" stroke-linejoin="round"/>
<path d="M27.7447 37.8893L32.1199 41.5912C34.6439 43.7787 36.9996 40.245 34.9804 38.5623L36.1582 39.572C38.3457 41.4229 41.2064 38.0575 39.0189 36.2066L39.1871 36.3749C41.3746 38.2258 44.2351 34.8604 42.0476 33.0095L31.2785 24.2595C31.2785 24.2595 29.2592 25.1009 28.4179 24.7643C28.4179 24.7643 25.3891 29.4758 23.0333 27.7932C20.8458 26.1105 23.0332 19.0432 29.4274 18.0336C29.4274 18.0336 32.288 17.1922 39.3553 20.8941L41.8794 20.0528" stroke="#05141F" stroke-width="2" stroke-linecap="round" stroke-linejoin="round"/>
<path d="M10.4936 16.6407L6 32.5076L13.6097 34.6627L18.1033 18.7958L10.4936 16.6407Z" stroke="#05141F" stroke-width="2" stroke-linecap="round" stroke-linejoin="round"/>
<path d="M49.5064 17.0876L41.8968 19.2427L46.3904 35.1097L54 32.9546L49.5064 17.0876Z" stroke="#05141F" stroke-width="2" stroke-linecap="round" stroke-linejoin="round"/>
<path d="M17.6492 19.8848C17.6492 19.8848 17.9858 19.2117 26.0627 19.0435" stroke="#05141F" stroke-width="2" stroke-linecap="round" stroke-linejoin="round"/>
<path d="M42.7208 33.8508C42.7208 33.8508 44.7401 34.3556 45.7497 33.1777" stroke="#05141F" stroke-width="2" stroke-linecap="round" stroke-linejoin="round"/>
</svg>
