<svg width="60" height="60" viewBox="0 0 60 60" fill="none" xmlns="http://www.w3.org/2000/svg">
<path d="M37.65 18H21" stroke="#05141F" stroke-width="2" stroke-miterlimit="10" stroke-linecap="round" stroke-linejoin="round"/>
<path d="M37.65 24H21" stroke="#05141F" stroke-width="2" stroke-miterlimit="10" stroke-linecap="round" stroke-linejoin="round"/>
<path d="M37.65 30H21" stroke="#05141F" stroke-width="2" stroke-miterlimit="10" stroke-linecap="round" stroke-linejoin="round"/>
<path d="M31.5 36H21" stroke="#05141F" stroke-width="2" stroke-miterlimit="10" stroke-linecap="round" stroke-linejoin="round"/>
<path d="M39 44.25C39 45.45 37.95 46.5 36.75 46.5C35.55 46.5 34.5 45.45 34.5 44.25C34.5 43.05 35.55 42 36.75 42C37.95 42 39 43.05 39 44.25Z" stroke="#05141F" stroke-width="2" stroke-miterlimit="10" stroke-linecap="round" stroke-linejoin="round"/>
<path d="M45 13.5C45 11.1 43.05 9 40.65 9H17.85C15.45 9 13.5 10.95 13.5 13.5V48C13.5 50.4 15.45 52.5 17.85 52.5H40.65C43.05 52.5 45 50.55 45 48V13.5V13.5Z" stroke="#05141F" stroke-width="2" stroke-miterlimit="10" stroke-linecap="round" stroke-linejoin="round"/>
</svg>
