<svg width="60" height="60" viewBox="0 0 60 60" fill="none" xmlns="http://www.w3.org/2000/svg">
<path d="M31.0499 23.7C27.1499 23.4 24 20.2499 24 16.3499C24 12.2999 27.3 9 31.35 9C35.4 9 38.7001 12.2999 38.7001 16.3499C38.7001 17.9999 38.1001 19.8 37.2001 21" stroke="#05141F" stroke-width="2" stroke-miterlimit="10" stroke-linecap="round" stroke-linejoin="round"/>
<path d="M44.2504 28.3503C44.2504 32.4003 40.9503 35.7003 36.9003 35.7003C32.8503 35.7003 29.5503 32.4003 29.5503 28.3503C29.5503 24.3003 32.8503 21.0003 36.9003 21.0003C40.9503 20.8503 44.2504 24.3003 44.2504 28.3503Z" stroke="#05141F" stroke-width="2" stroke-miterlimit="10" stroke-linecap="round" stroke-linejoin="round"/>
<path d="M16.5 40.9497C20.4 40.3497 25.6499 39.8997 28.7999 40.9497L39.15 44.2497C42.15 45.1497 40.7999 49.9497 37.7999 49.0497L27 45.5997" stroke="#05141F" stroke-width="2" stroke-linecap="round" stroke-linejoin="round"/>
<path d="M40.5 45.4503L48.6 41.5504C51.45 40.0504 53.3999 44.7004 50.5499 46.0504C38.3999 52.0504 39.3 52.0504 34.5 52.0504C31.65 52.0504 27.6001 51.6004 22.2001 49.0504C21.1501 48.4504 18.75 48.9004 16.5 49.5004" stroke="#05141F" stroke-width="2" stroke-linecap="round" stroke-linejoin="round"/>
<path d="M16.5 38.6997H9V52.1997H16.5V38.6997Z" stroke="#05141F" stroke-width="2" stroke-linecap="round" stroke-linejoin="round"/>
</svg>
