<svg width="23" height="23" viewBox="0 0 23 23" fill="none" xmlns="http://www.w3.org/2000/svg">
<mask id="path-1-inside-1_1_47" fill="white">
<path fill-rule="evenodd" clip-rule="evenodd" d="M13.6665 1.06528C13.4685 1.10104 13.1527 1.18192 12.9649 1.24495C12.7772 1.30797 12.4745 1.43457 12.2922 1.52629C12.11 1.61796 11.837 1.77545 11.6855 1.87626C11.5107 1.99262 9.62818 3.83831 6.53011 6.93087C2.88955 10.565 1.59264 11.8876 1.42363 12.1385C1.28968 12.3373 1.15624 12.6093 1.09698 12.8041C1.02624 13.0368 0.996678 13.2547 0.996219 13.5466C0.995852 13.8107 1.025 14.0582 1.07706 14.2327C1.12186 14.3829 1.22073 14.6308 1.29675 14.7836C1.41688 15.0249 1.91741 15.5447 5.11431 18.7472C7.13792 20.7745 8.89914 22.5036 9.02813 22.5898C9.15707 22.676 9.42561 22.8017 9.62487 22.8692C9.89827 22.9619 10.0828 22.9929 10.3773 22.9958C10.5919 22.9979 10.8811 22.9717 11.0199 22.9375C11.1588 22.9032 11.4059 22.811 11.569 22.7324C11.7919 22.625 12.0283 22.4356 12.5208 21.9698C12.8812 21.629 15.1356 19.3878 17.5306 16.9893C21.2203 13.2943 21.9247 12.5681 22.1445 12.2332C22.2872 12.0158 22.4632 11.706 22.5354 11.5447C22.6078 11.3834 22.7106 11.1171 22.7638 10.953C22.8171 10.7889 22.8922 10.4712 22.9307 10.247C22.9891 9.90711 23.0006 9.29256 23 6.55175C22.9995 3.784 22.9884 3.21778 22.9302 2.97055C22.8921 2.80906 22.784 2.5302 22.69 2.35085C22.5903 2.16072 22.4042 1.9099 22.2435 1.74919C22.0828 1.58849 21.832 1.40235 21.6418 1.30269C21.4625 1.20868 21.1836 1.10063 21.0221 1.06253C20.7738 1.004 20.2122 0.993854 17.3776 0.996792C14.6976 0.9995 13.9545 1.01322 13.6665 1.06528ZM20.6815 2.74158C20.782 2.76949 20.9398 2.86795 21.0323 2.9604C21.1247 3.0529 21.2232 3.21072 21.2511 3.31115C21.2858 3.43619 21.3014 4.46223 21.3005 6.56924C21.2994 8.94286 21.2849 9.724 21.2372 9.99185C21.2031 10.1827 21.1234 10.4673 21.06 10.6243C20.9965 10.7813 20.8758 11.0279 20.7915 11.1724C20.6771 11.3687 19.4215 12.655 15.8177 16.2676C12.538 19.5554 10.9373 21.1291 10.8103 21.1907C10.7077 21.2405 10.5335 21.2813 10.4232 21.2813C10.3129 21.2813 10.1387 21.2405 10.036 21.1906C9.90934 21.129 8.7175 19.9578 6.3268 17.5455C4.38936 15.5906 2.78333 13.9363 2.75781 13.8692C2.73229 13.8021 2.7114 13.6547 2.7114 13.5417C2.7114 13.4283 2.75106 13.2601 2.8 13.166C2.85017 13.0695 4.98422 10.9039 7.72314 8.17003C11.8567 4.04405 12.6043 3.31739 12.879 3.1582C13.0557 3.05579 13.3292 2.92919 13.4867 2.87681C13.6441 2.82444 13.8817 2.76352 14.0146 2.74135C14.1474 2.71923 15.6608 2.69885 17.3776 2.696C19.529 2.69251 20.5557 2.70665 20.6815 2.74158ZM16.193 4.62275C16.097 4.64538 15.9111 4.70873 15.7799 4.76363C15.6487 4.81848 15.4115 4.95445 15.2528 5.06577C15.094 5.17708 14.8808 5.37355 14.779 5.5024C14.6771 5.6312 14.5514 5.81968 14.4996 5.92122C14.4479 6.02271 14.3658 6.22037 14.3174 6.36047C14.269 6.50052 14.2178 6.77007 14.2038 6.95942C14.1867 7.18986 14.2024 7.41754 14.2513 7.64797C14.2915 7.83732 14.3898 8.12652 14.4699 8.29062C14.5695 8.49484 14.7253 8.69788 14.9637 8.93419C15.1552 9.12409 15.4188 9.33626 15.5494 9.40571C15.6801 9.47521 15.9468 9.57289 16.1421 9.62283C16.3373 9.67277 16.6126 9.71326 16.7537 9.71285C16.8948 9.71239 17.1499 9.68246 17.3205 9.64629C17.4911 9.61016 17.7803 9.50302 17.9631 9.40823C18.1753 9.29825 18.4036 9.12698 18.594 8.93506C18.7732 8.75429 18.9524 8.51509 19.0428 8.33584C19.1255 8.17173 19.2234 7.92399 19.2603 7.78532C19.2972 7.64669 19.3276 7.35681 19.3279 7.1412C19.3282 6.92559 19.2977 6.63112 19.2601 6.48675C19.2225 6.34243 19.1267 6.09538 19.0472 5.93775C18.9563 5.75776 18.7811 5.53113 18.5761 5.32847C18.3946 5.14894 18.1258 4.94077 17.9706 4.85938C17.817 4.77887 17.57 4.68137 17.4215 4.64272C17.2704 4.60333 16.9793 4.57446 16.7597 4.57703C16.5441 4.5796 16.2891 4.60017 16.193 4.62275ZM17.2296 6.40798C17.3155 6.46688 17.433 6.58384 17.4906 6.66789C17.5482 6.75198 17.6055 6.91145 17.618 7.02235C17.6305 7.13321 17.6159 7.29924 17.5855 7.39123C17.5552 7.48322 17.478 7.62071 17.414 7.69668C17.3501 7.77269 17.2336 7.86803 17.1552 7.90857C17.0768 7.94914 16.9089 7.98371 16.782 7.98545C16.6185 7.98766 16.4938 7.95621 16.354 7.8774C16.2454 7.81625 16.1138 7.69704 16.0616 7.61253C16.0093 7.52798 15.9506 7.38779 15.931 7.30103C15.9114 7.21423 15.9151 7.05582 15.9391 6.94895C15.9631 6.84214 16.0359 6.68492 16.101 6.59958C16.1661 6.51429 16.3043 6.40472 16.4083 6.35611C16.5408 6.2941 16.6682 6.2727 16.8353 6.28432C16.9878 6.29492 17.1294 6.33931 17.2296 6.40798Z"/>
</mask>
<path fill-rule="evenodd" clip-rule="evenodd" d="M13.6665 1.06528C13.4685 1.10104 13.1527 1.18192 12.9649 1.24495C12.7772 1.30797 12.4745 1.43457 12.2922 1.52629C12.11 1.61796 11.837 1.77545 11.6855 1.87626C11.5107 1.99262 9.62818 3.83831 6.53011 6.93087C2.88955 10.565 1.59264 11.8876 1.42363 12.1385C1.28968 12.3373 1.15624 12.6093 1.09698 12.8041C1.02624 13.0368 0.996678 13.2547 0.996219 13.5466C0.995852 13.8107 1.025 14.0582 1.07706 14.2327C1.12186 14.3829 1.22073 14.6308 1.29675 14.7836C1.41688 15.0249 1.91741 15.5447 5.11431 18.7472C7.13792 20.7745 8.89914 22.5036 9.02813 22.5898C9.15707 22.676 9.42561 22.8017 9.62487 22.8692C9.89827 22.9619 10.0828 22.9929 10.3773 22.9958C10.5919 22.9979 10.8811 22.9717 11.0199 22.9375C11.1588 22.9032 11.4059 22.811 11.569 22.7324C11.7919 22.625 12.0283 22.4356 12.5208 21.9698C12.8812 21.629 15.1356 19.3878 17.5306 16.9893C21.2203 13.2943 21.9247 12.5681 22.1445 12.2332C22.2872 12.0158 22.4632 11.706 22.5354 11.5447C22.6078 11.3834 22.7106 11.1171 22.7638 10.953C22.8171 10.7889 22.8922 10.4712 22.9307 10.247C22.9891 9.90711 23.0006 9.29256 23 6.55175C22.9995 3.784 22.9884 3.21778 22.9302 2.97055C22.8921 2.80906 22.784 2.5302 22.69 2.35085C22.5903 2.16072 22.4042 1.9099 22.2435 1.74919C22.0828 1.58849 21.832 1.40235 21.6418 1.30269C21.4625 1.20868 21.1836 1.10063 21.0221 1.06253C20.7738 1.004 20.2122 0.993854 17.3776 0.996792C14.6976 0.9995 13.9545 1.01322 13.6665 1.06528ZM20.6815 2.74158C20.782 2.76949 20.9398 2.86795 21.0323 2.9604C21.1247 3.0529 21.2232 3.21072 21.2511 3.31115C21.2858 3.43619 21.3014 4.46223 21.3005 6.56924C21.2994 8.94286 21.2849 9.724 21.2372 9.99185C21.2031 10.1827 21.1234 10.4673 21.06 10.6243C20.9965 10.7813 20.8758 11.0279 20.7915 11.1724C20.6771 11.3687 19.4215 12.655 15.8177 16.2676C12.538 19.5554 10.9373 21.1291 10.8103 21.1907C10.7077 21.2405 10.5335 21.2813 10.4232 21.2813C10.3129 21.2813 10.1387 21.2405 10.036 21.1906C9.90934 21.129 8.7175 19.9578 6.3268 17.5455C4.38936 15.5906 2.78333 13.9363 2.75781 13.8692C2.73229 13.8021 2.7114 13.6547 2.7114 13.5417C2.7114 13.4283 2.75106 13.2601 2.8 13.166C2.85017 13.0695 4.98422 10.9039 7.72314 8.17003C11.8567 4.04405 12.6043 3.31739 12.879 3.1582C13.0557 3.05579 13.3292 2.92919 13.4867 2.87681C13.6441 2.82444 13.8817 2.76352 14.0146 2.74135C14.1474 2.71923 15.6608 2.69885 17.3776 2.696C19.529 2.69251 20.5557 2.70665 20.6815 2.74158ZM16.193 4.62275C16.097 4.64538 15.9111 4.70873 15.7799 4.76363C15.6487 4.81848 15.4115 4.95445 15.2528 5.06577C15.094 5.17708 14.8808 5.37355 14.779 5.5024C14.6771 5.6312 14.5514 5.81968 14.4996 5.92122C14.4479 6.02271 14.3658 6.22037 14.3174 6.36047C14.269 6.50052 14.2178 6.77007 14.2038 6.95942C14.1867 7.18986 14.2024 7.41754 14.2513 7.64797C14.2915 7.83732 14.3898 8.12652 14.4699 8.29062C14.5695 8.49484 14.7253 8.69788 14.9637 8.93419C15.1552 9.12409 15.4188 9.33626 15.5494 9.40571C15.6801 9.47521 15.9468 9.57289 16.1421 9.62283C16.3373 9.67277 16.6126 9.71326 16.7537 9.71285C16.8948 9.71239 17.1499 9.68246 17.3205 9.64629C17.4911 9.61016 17.7803 9.50302 17.9631 9.40823C18.1753 9.29825 18.4036 9.12698 18.594 8.93506C18.7732 8.75429 18.9524 8.51509 19.0428 8.33584C19.1255 8.17173 19.2234 7.92399 19.2603 7.78532C19.2972 7.64669 19.3276 7.35681 19.3279 7.1412C19.3282 6.92559 19.2977 6.63112 19.2601 6.48675C19.2225 6.34243 19.1267 6.09538 19.0472 5.93775C18.9563 5.75776 18.7811 5.53113 18.5761 5.32847C18.3946 5.14894 18.1258 4.94077 17.9706 4.85938C17.817 4.77887 17.57 4.68137 17.4215 4.64272C17.2704 4.60333 16.9793 4.57446 16.7597 4.57703C16.5441 4.5796 16.2891 4.60017 16.193 4.62275ZM17.2296 6.40798C17.3155 6.46688 17.433 6.58384 17.4906 6.66789C17.5482 6.75198 17.6055 6.91145 17.618 7.02235C17.6305 7.13321 17.6159 7.29924 17.5855 7.39123C17.5552 7.48322 17.478 7.62071 17.414 7.69668C17.3501 7.77269 17.2336 7.86803 17.1552 7.90857C17.0768 7.94914 16.9089 7.98371 16.782 7.98545C16.6185 7.98766 16.4938 7.95621 16.354 7.8774C16.2454 7.81625 16.1138 7.69704 16.0616 7.61253C16.0093 7.52798 15.9506 7.38779 15.931 7.30103C15.9114 7.21423 15.9151 7.05582 15.9391 6.94895C15.9631 6.84214 16.0359 6.68492 16.101 6.59958C16.1661 6.51429 16.3043 6.40472 16.4083 6.35611C16.5408 6.2941 16.6682 6.2727 16.8353 6.28432C16.9878 6.29492 17.1294 6.33931 17.2296 6.40798Z" fill="#05141F"/>
<path d="M13.6665 1.06528L13.7007 1.25475L13.7007 1.25474L13.6665 1.06528ZM12.9649 1.24495L12.9037 1.06242L12.9037 1.06242L12.9649 1.24495ZM12.2922 1.52629L12.3788 1.69828L12.3788 1.69827L12.2922 1.52629ZM11.6855 1.87626L11.5789 1.71597L11.5789 1.71597L11.6855 1.87626ZM6.53011 6.93087L6.39409 6.79461L6.39409 6.79461L6.53011 6.93087ZM1.42363 12.1385L1.26395 12.0309L1.26394 12.0309L1.42363 12.1385ZM1.09698 12.8041L0.912778 12.748L0.912768 12.7481L1.09698 12.8041ZM0.996219 13.5466L0.803686 13.5463L0.803686 13.5463L0.996219 13.5466ZM1.07706 14.2327L0.89255 14.2877L0.892559 14.2878L1.07706 14.2327ZM1.29675 14.7836L1.12437 14.8693L1.12438 14.8694L1.29675 14.7836ZM5.11431 18.7472L5.25057 18.6112L5.25057 18.6112L5.11431 18.7472ZM9.02813 22.5898L8.92115 22.7499L8.92116 22.7499L9.02813 22.5898ZM9.62487 22.8692L9.68669 22.6869L9.68667 22.6869L9.62487 22.8692ZM10.3773 22.9958L10.3792 22.8033H10.3792L10.3773 22.9958ZM11.0199 22.9375L11.066 23.1244L11.066 23.1244L11.0199 22.9375ZM11.569 22.7324L11.4854 22.5589L11.4854 22.5589L11.569 22.7324ZM12.5208 21.9698L12.3885 21.83H12.3885L12.5208 21.9698ZM17.5306 16.9893L17.6668 17.1254L17.5306 16.9893ZM22.1445 12.2332L22.3055 12.3389L22.1445 12.2332ZM22.5354 11.5447L22.3598 11.4659L22.3598 11.4659L22.5354 11.5447ZM22.9307 10.247L22.7409 10.2144L22.7409 10.2144L22.9307 10.247ZM23 6.55175L22.8075 6.55179V6.55179L23 6.55175ZM22.9302 2.97055L23.1176 2.92639L23.1176 2.92634L22.9302 2.97055ZM22.69 2.35085L22.5195 2.44023L22.5195 2.44024L22.69 2.35085ZM21.6418 1.30269L21.5525 1.47322L21.5525 1.47322L21.6418 1.30269ZM21.0222 1.06253L21.0664 0.875136L21.0663 0.875124L21.0222 1.06253ZM17.3776 0.996792L17.3777 1.18933H17.3778L17.3776 0.996792ZM20.6815 2.74158L20.7331 2.55608L20.7331 2.55607L20.6815 2.74158ZM21.0323 2.9604L21.1685 2.8243L21.1684 2.82423L21.0323 2.9604ZM21.2511 3.31115L21.4366 3.25966L21.4366 3.2596L21.2511 3.31115ZM21.3005 6.56924L21.493 6.56933V6.56932L21.3005 6.56924ZM21.2372 9.99185L21.4267 10.0257L21.4267 10.0257L21.2372 9.99185ZM21.06 10.6243L21.2385 10.6964L21.2385 10.6964L21.06 10.6243ZM20.7915 11.1724L20.6252 11.0754L20.6252 11.0754L20.7915 11.1724ZM15.8177 16.2676L15.6814 16.1316V16.1316L15.8177 16.2676ZM10.8103 21.1907L10.7263 21.0175L10.7263 21.0175L10.8103 21.1907ZM10.036 21.1906L9.95184 21.3637L9.95185 21.3637L10.036 21.1906ZM6.3268 17.5455L6.46355 17.41L6.46355 17.41L6.3268 17.5455ZM2.8 13.166L2.97081 13.2549L2.97082 13.2548L2.8 13.166ZM7.72314 8.17003L7.85916 8.3063L7.72314 8.17003ZM12.879 3.1582L12.9755 3.32479L12.9755 3.32479L12.879 3.1582ZM13.4867 2.87681L13.5474 3.05951L13.5475 3.0595L13.4867 2.87681ZM14.0146 2.74135L13.9829 2.55143L13.9829 2.55144L14.0146 2.74135ZM17.3776 2.696L17.3772 2.50347H17.3772L17.3776 2.696ZM16.193 4.62275L16.149 4.43533L16.1489 4.43535L16.193 4.62275ZM15.7799 4.76363L15.8542 4.94125L15.8542 4.94124L15.7799 4.76363ZM15.2528 5.06577L15.3633 5.22342L15.3633 5.2234L15.2528 5.06577ZM14.779 5.5024L14.93 5.62183L14.93 5.62177L14.779 5.5024ZM14.4996 5.92122L14.6711 6.00872L14.6712 6.00869L14.4996 5.92122ZM14.3174 6.36047L14.4994 6.42339L14.4994 6.42337L14.3174 6.36047ZM14.2038 6.95942L14.0118 6.94518L14.0118 6.94519L14.2038 6.95942ZM14.2513 7.64797L14.4396 7.60802L14.4396 7.60802L14.2513 7.64797ZM14.4699 8.29062L14.6429 8.20622L14.6429 8.20617L14.4699 8.29062ZM14.9637 8.93419L15.0992 8.79747L15.0992 8.79745L14.9637 8.93419ZM15.5494 9.40571L15.6398 9.23572L15.6398 9.2357L15.5494 9.40571ZM16.7537 9.71285L16.7543 9.90538H16.7544L16.7537 9.71285ZM17.3205 9.64629L17.2806 9.45793L17.2806 9.45794L17.3205 9.64629ZM17.9631 9.40823L17.8745 9.2373L17.8745 9.2373L17.9631 9.40823ZM18.594 8.93506L18.7307 9.07066L18.7307 9.07063L18.594 8.93506ZM19.0428 8.33583L19.2147 8.42252L19.2147 8.4225L19.0428 8.33583ZM19.2603 7.78532L19.0742 7.73578L19.0742 7.7358L19.2603 7.78532ZM19.3279 7.1412L19.1354 7.14091V7.14095L19.3279 7.1412ZM19.2601 6.48675L19.4464 6.43823L19.4464 6.43822L19.2601 6.48675ZM19.0472 5.93775L19.2191 5.85104L19.219 5.851L19.0472 5.93775ZM18.5761 5.32847L18.4408 5.46537L18.4408 5.46539L18.5761 5.32847ZM17.9706 4.85938L17.8812 5.0299L17.8812 5.02991L17.9706 4.85938ZM17.4215 4.64272L17.373 4.82903L17.373 4.82904L17.4215 4.64272ZM16.7597 4.57703L16.7574 4.38451L16.7574 4.38451L16.7597 4.57703ZM17.2296 6.40798L17.3384 6.24917L17.3384 6.24916L17.2296 6.40798ZM17.4906 6.66789L17.6494 6.55908L17.6494 6.55904L17.4906 6.66789ZM17.618 7.02235L17.4267 7.04389L17.4267 7.04398L17.618 7.02235ZM17.5855 7.39123L17.7684 7.45163L17.7684 7.45154L17.5855 7.39123ZM17.414 7.69668L17.2667 7.57269L17.2667 7.57274L17.414 7.69668ZM17.1552 7.90857L17.0668 7.73754L17.0667 7.73758L17.1552 7.90857ZM16.782 7.98545L16.7846 8.17797L16.7846 8.17797L16.782 7.98545ZM16.354 7.8774L16.4485 7.70966L16.4484 7.70964L16.354 7.8774ZM16.0616 7.61253L16.2254 7.5113L16.2253 7.51128L16.0616 7.61253ZM15.931 7.30103L16.1188 7.2587L16.1188 7.25863L15.931 7.30103ZM15.9391 6.94895L15.7512 6.90673L15.7512 6.90675L15.9391 6.94895ZM16.101 6.59958L16.2541 6.71635L16.2541 6.71634L16.101 6.59958ZM16.4083 6.35611L16.4898 6.53051L16.4898 6.53051L16.4083 6.35611ZM16.8353 6.28432L16.8219 6.47639L16.8219 6.47639L16.8353 6.28432ZM13.6323 0.87581C13.4252 0.913203 13.1004 0.996387 12.9037 1.06242L13.0262 1.42747C13.205 1.36745 13.5117 1.28887 13.7007 1.25475L13.6323 0.87581ZM12.9037 1.06242C12.707 1.12844 12.3958 1.2586 12.2057 1.35431L12.3788 1.69827C12.5531 1.61054 12.8474 1.4875 13.0262 1.42747L12.9037 1.06242ZM12.2057 1.3543C12.0174 1.44905 11.7375 1.61038 11.5789 1.71597L11.7922 2.03654C11.9365 1.94052 12.2027 1.78687 12.3788 1.69828L12.2057 1.3543ZM11.5789 1.71597C11.5421 1.74042 11.4816 1.79354 11.4112 1.85768C11.3354 1.92674 11.2342 2.0216 11.1091 2.14085C10.8586 2.37951 10.5093 2.71852 10.0692 3.15001C9.1889 4.01313 7.94329 5.24816 6.39409 6.79461L6.66613 7.06713C8.215 5.52101 9.45968 4.28692 10.3388 3.42497C10.7785 2.99392 11.1262 2.6564 11.3747 2.41963C11.499 2.30116 11.5978 2.20857 11.6705 2.14235C11.7069 2.10918 11.736 2.08335 11.758 2.0645C11.769 2.05508 11.7777 2.04795 11.7841 2.04279C11.7912 2.03717 11.7934 2.03573 11.7922 2.03654L11.5789 1.71597ZM6.39409 6.79461C4.57383 8.61168 3.3388 9.85152 2.53757 10.6686C2.13705 11.0771 1.84409 11.3807 1.6403 11.5984C1.44128 11.8111 1.31659 11.9528 1.26395 12.0309L1.5833 12.2461C1.61517 12.1988 1.71598 12.0811 1.92143 11.8616C2.12212 11.6472 2.4126 11.346 2.81251 10.9382C3.61213 10.1228 4.84584 8.88423 6.66613 7.06713L6.39409 6.79461ZM1.26394 12.0309C1.12115 12.2429 0.978488 12.532 0.912778 12.748L1.28118 12.8601C1.33399 12.6865 1.45821 12.4318 1.58331 12.246L1.26394 12.0309ZM0.912768 12.7481C0.83557 13.002 0.804169 13.2391 0.803686 13.5463L1.18875 13.5469C1.18919 13.2702 1.21691 13.0715 1.28119 12.8601L0.912768 12.7481ZM0.803686 13.5463C0.803303 13.8215 0.833332 14.0892 0.89255 14.2877L1.26156 14.1777C1.21667 14.0272 1.1884 13.7999 1.18875 13.5468L0.803686 13.5463ZM0.892559 14.2878C0.940781 14.4494 1.04388 14.7075 1.12437 14.8693L1.46913 14.6978C1.39759 14.554 1.30293 14.3164 1.26155 14.1777L0.892559 14.2878ZM1.12438 14.8694C1.16533 14.9516 1.23184 15.0439 1.34819 15.1797C1.46577 15.3168 1.64273 15.5078 1.91307 15.7885C2.45429 16.3505 3.38004 17.2824 4.97805 18.8833L5.25057 18.6112C3.65167 17.0095 2.72871 16.0803 2.19041 15.5214C1.92099 15.2416 1.75048 15.0573 1.64053 14.929C1.52934 14.7993 1.48824 14.7362 1.46911 14.6978L1.12438 14.8694ZM4.97805 18.8833C5.99019 19.8972 6.93687 20.8368 7.64682 21.5338C8.00173 21.8823 8.29784 22.1705 8.51354 22.3771C8.6213 22.4804 8.70958 22.5639 8.77534 22.6246C8.83441 22.6791 8.88933 22.7286 8.92115 22.7499L9.13511 22.4297C9.139 22.4323 9.13358 22.4288 9.11184 22.4098C9.09324 22.3935 9.06816 22.3708 9.03651 22.3416C8.97335 22.2833 8.88707 22.2018 8.77996 22.0991C8.56591 21.894 8.27105 21.607 7.91659 21.259C7.20778 20.5631 6.26204 19.6245 5.25057 18.6112L4.97805 18.8833ZM8.92116 22.7499C9.0681 22.8481 9.35312 22.9804 9.56308 23.0516L9.68667 22.6869C9.49809 22.623 9.24604 22.5039 9.1351 22.4297L8.92116 22.7499ZM9.56306 23.0516C9.85617 23.1509 10.0609 23.1853 10.3754 23.1884L10.3792 22.8033C10.1046 22.8006 9.94038 22.7729 9.68669 22.6869L9.56306 23.0516ZM10.3754 23.1884C10.5989 23.1906 10.9057 23.1639 11.066 23.1244L10.9739 22.7505C10.8564 22.7795 10.5848 22.8053 10.3792 22.8033L10.3754 23.1884ZM11.066 23.1244C11.2207 23.0863 11.4804 22.9888 11.6526 22.9058L11.4854 22.5589C11.3313 22.6332 11.0969 22.7202 10.9738 22.7506L11.066 23.1244ZM11.6525 22.9059C11.9063 22.7836 12.163 22.5733 12.6531 22.1097L12.3885 21.83C11.8937 22.298 11.6775 22.4664 11.4854 22.5589L11.6525 22.9059ZM12.6531 22.1097C13.0161 21.7665 15.2732 19.5225 17.6668 17.1254L17.3944 16.8533C14.998 19.2531 12.7463 21.4916 12.3885 21.83L12.6531 22.1097ZM17.6668 17.1254C19.5114 15.2782 20.611 14.1718 21.277 13.4853C21.9378 12.8041 22.1835 12.5248 22.3055 12.3389L21.9836 12.1276C21.8858 12.2765 21.6694 12.5278 21.0006 13.2172C20.3369 13.9013 19.2395 15.0055 17.3944 16.8533L17.6668 17.1254ZM22.3055 12.3389C22.4514 12.1165 22.6332 11.7973 22.7111 11.6234L22.3598 11.4659C22.2931 11.6146 22.123 11.9151 21.9836 12.1276L22.3055 12.3389ZM22.7111 11.6235C22.7862 11.456 22.8915 11.1833 22.947 11.0124L22.5807 10.8936C22.5296 11.0509 22.4294 11.3107 22.3598 11.4659L22.7111 11.6235ZM22.947 11.0124C23.0038 10.8373 23.0808 10.5102 23.1204 10.2796L22.7409 10.2144C22.7035 10.4322 22.6304 10.7405 22.5807 10.8936L22.947 11.0124ZM23.1204 10.2796C23.1524 10.0937 23.1699 9.84184 23.18 9.30333C23.1901 8.76244 23.1929 7.9217 23.1926 6.55171L22.8075 6.55179C22.8078 7.9226 22.8051 8.75954 22.795 9.2961C22.7849 9.83504 22.7674 10.0604 22.7409 10.2144L23.1204 10.2796ZM23.1926 6.55171C23.1923 5.16834 23.1894 4.33286 23.1792 3.8122C23.1692 3.29807 23.1522 3.07351 23.1176 2.92639L22.7428 3.0147C22.7664 3.11482 22.784 3.29699 22.7942 3.81971C22.8043 4.33591 22.8072 5.16741 22.8075 6.55179L23.1926 6.55171ZM23.1176 2.92634C23.0751 2.74616 22.9605 2.4521 22.8605 2.26146L22.5195 2.44024C22.6076 2.60829 22.7091 2.87196 22.7428 3.01476L23.1176 2.92634ZM22.8605 2.26147C22.7513 2.05312 22.5533 1.78671 22.3796 1.61305L22.1074 1.88534C22.2551 2.0331 22.4294 2.26832 22.5195 2.44023L22.8605 2.26147ZM22.3796 1.61305C22.206 1.4394 21.9396 1.24137 21.7312 1.13216L21.5525 1.47322C21.7244 1.56333 21.9596 1.73758 22.1074 1.88534L22.3796 1.61305ZM21.7312 1.13217C21.5406 1.03223 21.2465 0.917646 21.0664 0.875136L20.9779 1.24991C21.1207 1.2836 21.3844 1.38513 21.5525 1.47322L21.7312 1.13217ZM21.0663 0.875124C20.9184 0.840282 20.6946 0.823513 20.1732 0.814107C19.6452 0.804582 18.7942 0.80279 17.3774 0.804258L17.3778 1.18933C18.7956 1.18786 19.6427 1.18967 20.1662 1.19911C20.6963 1.20867 20.8775 1.22624 20.978 1.24993L21.0663 0.875124ZM17.3774 0.804258C16.0376 0.805612 15.1802 0.809717 14.6215 0.82003C14.068 0.830246 13.7942 0.846541 13.6322 0.875816L13.7007 1.25474C13.8268 1.23196 14.0685 1.21537 14.6286 1.20503C15.1834 1.19479 16.0375 1.19068 17.3777 1.18933L17.3774 0.804258ZM20.63 2.92709C20.655 2.93403 20.7018 2.95506 20.758 2.99014C20.8125 3.02413 20.8627 3.06311 20.8962 3.09658L21.1684 2.82423C21.1094 2.76525 21.0345 2.70877 20.9618 2.66344C20.8909 2.6192 20.8085 2.57704 20.7331 2.55608L20.63 2.92709ZM20.8961 3.09651C20.9296 3.13 20.9686 3.18023 21.0026 3.23471C21.0376 3.29094 21.0587 3.3377 21.0656 3.3627L21.4366 3.2596C21.4157 3.18417 21.3735 3.1018 21.3293 3.03089C21.2839 2.95823 21.2275 2.88331 21.1685 2.8243L20.8961 3.09651ZM21.0656 3.36264C21.0645 3.35855 21.0675 3.37112 21.0714 3.4169C21.0748 3.45725 21.0781 3.51283 21.0812 3.58497C21.0875 3.72899 21.0926 3.93272 21.0966 4.19987C21.1047 4.73383 21.1084 5.51587 21.1079 6.56916L21.493 6.56932C21.4935 5.5156 21.4898 4.73111 21.4817 4.19404C21.4776 3.92568 21.4724 3.71776 21.466 3.56839C21.4627 3.49384 21.4592 3.43229 21.4551 3.38435C21.4515 3.34186 21.4464 3.29502 21.4366 3.25966L21.0656 3.36264ZM21.1079 6.56916C21.1074 7.75606 21.1035 8.54314 21.0938 9.06665C21.084 9.596 21.0683 9.84203 21.0476 9.95803L21.4267 10.0257C21.4538 9.87382 21.4692 9.59535 21.4788 9.07377C21.4886 8.54635 21.4925 7.75604 21.493 6.56933L21.1079 6.56916ZM21.0476 9.95802C21.0156 10.1376 20.9392 10.4092 20.8814 10.5522L21.2385 10.6964C21.3075 10.5254 21.3906 10.2278 21.4267 10.0257L21.0476 9.95802ZM20.8815 10.5522C20.8214 10.7007 20.7047 10.9391 20.6252 11.0754L20.9579 11.2694C21.0468 11.1168 21.1716 10.8619 21.2385 10.6964L20.8815 10.5522ZM20.6252 11.0754C20.6252 11.0754 20.6238 11.0778 20.62 11.0832C20.6163 11.0885 20.6111 11.0954 20.6043 11.1042C20.5905 11.122 20.5716 11.1451 20.5466 11.1742C20.4967 11.2324 20.4261 11.3108 20.3318 11.4123C20.1434 11.6151 19.8644 11.9058 19.4753 12.3044C18.6975 13.1012 17.4833 14.3253 15.6814 16.1316L15.954 16.4036C17.7559 14.5973 18.9714 13.3719 19.7509 12.5734C20.1405 12.1742 20.4221 11.8808 20.6139 11.6744C20.7097 11.5712 20.7842 11.4887 20.8389 11.4249C20.8902 11.365 20.9335 11.3111 20.9579 11.2694L20.6252 11.0754ZM15.6814 16.1316C14.0416 17.7754 12.8221 18.9903 11.9967 19.8017C11.584 20.2075 11.2705 20.5118 11.0527 20.7181C10.9436 20.8214 10.8596 20.8991 10.7996 20.9524C10.7694 20.9792 10.7467 20.9985 10.7307 21.0115C10.709 21.029 10.7115 21.0247 10.7263 21.0175L10.8944 21.364C10.925 21.3491 10.955 21.3253 10.9723 21.3113C10.9952 21.2928 11.0231 21.2689 11.0553 21.2403C11.1199 21.1829 11.2074 21.1019 11.3175 20.9976C11.538 20.7888 11.8535 20.4826 12.2667 20.0763C13.0934 19.2635 14.3141 18.0476 15.954 16.4036L15.6814 16.1316ZM10.7263 21.0175C10.6489 21.0551 10.5033 21.0888 10.4232 21.0888V21.4738C10.5636 21.4738 10.7665 21.426 10.8944 21.3639L10.7263 21.0175ZM10.4232 21.0888C10.3431 21.0888 10.1975 21.055 10.1202 21.0174L9.95185 21.3637C10.0798 21.4259 10.2827 21.4738 10.4232 21.4738V21.0888ZM10.1202 21.0174C10.1317 21.023 10.1332 21.0258 10.1173 21.0136C10.105 21.004 10.0875 20.9896 10.0641 20.9695C10.0176 20.9293 9.95348 20.8711 9.87074 20.7937C9.70558 20.6392 9.47135 20.4129 9.16537 20.1122C8.55368 19.5111 7.65877 18.616 6.46355 17.41L6.19005 17.6811C7.38553 18.8873 8.2819 19.7839 8.89547 20.3869C9.20212 20.6882 9.43902 20.9171 9.60767 21.0749C9.69184 21.1536 9.76028 21.2159 9.81252 21.261C9.83854 21.2834 9.86198 21.3029 9.88217 21.3185C9.89883 21.3313 9.92452 21.3505 9.95184 21.3637L10.1202 21.0174ZM6.46355 17.41C5.49516 16.4329 4.60978 15.5311 3.96348 14.8653C3.64025 14.5324 3.37725 14.2589 3.19369 14.0647C3.10178 13.9675 3.03055 13.891 2.98186 13.8371C2.95736 13.81 2.93973 13.7899 2.92841 13.7764C2.9226 13.7695 2.91986 13.766 2.91914 13.765C2.91287 13.7566 2.9275 13.7737 2.93777 13.8007L2.57785 13.9376C2.58972 13.9688 2.60902 13.9933 2.61045 13.9952C2.61742 14.0045 2.62539 14.0143 2.63322 14.0237C2.64917 14.0427 2.67056 14.067 2.69619 14.0953C2.74779 14.1524 2.82135 14.2314 2.91387 14.3293C3.09916 14.5253 3.36354 14.8002 3.68719 15.1335C4.33465 15.8005 5.221 16.7033 6.19005 17.6811L6.46355 17.41ZM2.93777 13.8007C2.92393 13.7644 2.90394 13.6432 2.90394 13.5417H2.51887C2.51887 13.6662 2.54064 13.8398 2.57785 13.9376L2.93777 13.8007ZM2.90394 13.5417C2.90394 13.457 2.93713 13.3196 2.97081 13.2549L2.62918 13.0772C2.565 13.2006 2.51887 13.3995 2.51887 13.5417H2.90394ZM2.97082 13.2548C2.96258 13.2707 2.95472 13.2792 2.96127 13.271C2.96434 13.2672 2.96984 13.2606 2.97851 13.2507C2.99565 13.231 3.02094 13.2031 3.05471 13.1668C3.12198 13.0943 3.21918 12.9921 3.34387 12.8628C3.59306 12.6042 3.94953 12.2396 4.39042 11.7922C5.27209 10.8975 6.48994 9.67299 7.85916 8.3063L7.58712 8.03376C6.21742 9.40094 4.99878 10.6262 4.11615 11.5219C3.6749 11.9697 3.31727 12.3355 3.06661 12.5955C2.94139 12.7255 2.84223 12.8297 2.7725 12.9048C2.73776 12.9422 2.70938 12.9734 2.68842 12.9974C2.67802 13.0093 2.66836 13.0207 2.66025 13.0309C2.65561 13.0367 2.64055 13.0553 2.62917 13.0772L2.97082 13.2548ZM7.85916 8.3063C9.92626 6.24301 11.1455 5.03086 11.8824 4.31463C12.251 3.9563 12.497 3.72393 12.6671 3.57176C12.8398 3.41739 12.9254 3.35386 12.9755 3.32479L12.7825 2.99161C12.6953 3.04214 12.5844 3.12914 12.4105 3.28472C12.234 3.44251 11.9833 3.67953 11.614 4.03851C10.8749 4.7569 9.65363 5.97107 7.58712 8.03376L7.85916 8.3063ZM12.9755 3.32479C13.1434 3.22752 13.4048 3.10693 13.5474 3.05951L13.4259 2.69412C13.2535 2.75144 12.9681 2.88406 12.7825 2.99162L12.9755 3.32479ZM13.5475 3.0595C13.6974 3.00961 13.9251 2.95147 14.0463 2.93126L13.9829 2.55144C13.8382 2.57558 13.5908 2.63926 13.4259 2.69412L13.5475 3.0595ZM14.0462 2.93127C14.0449 2.93148 14.0509 2.9306 14.0693 2.92926C14.0858 2.92806 14.1079 2.92679 14.1358 2.92549C14.1914 2.9229 14.2667 2.92031 14.3599 2.9178C14.546 2.91276 14.8003 2.90807 15.1047 2.90396C15.7133 2.89576 16.5201 2.88996 17.3779 2.88853L17.3772 2.50347C16.5183 2.50489 15.71 2.5107 15.0995 2.51893C14.7943 2.52304 14.5381 2.52777 14.3495 2.53287C14.2552 2.53542 14.1771 2.53808 14.1178 2.54084C14.0638 2.54337 14.0131 2.54641 13.9829 2.55143L14.0462 2.93127ZM17.3779 2.88853C18.4534 2.88679 19.2467 2.88945 19.7865 2.8969C20.0566 2.90062 20.2618 2.90553 20.4067 2.9116C20.4793 2.91464 20.5351 2.91791 20.5756 2.92131C20.6215 2.92517 20.6341 2.92823 20.63 2.9271L20.7331 2.55607C20.6975 2.5462 20.6505 2.54118 20.6078 2.53759C20.5597 2.53355 20.4978 2.53001 20.4228 2.52687C20.2726 2.52057 20.0631 2.51561 19.7918 2.51187C19.2489 2.50438 18.4532 2.50172 17.3772 2.50347L17.3779 2.88853ZM16.1489 4.43535C16.0392 4.4612 15.8427 4.52862 15.7056 4.58602L15.8542 4.94124C15.9794 4.88884 16.1548 4.82956 16.2372 4.81015L16.1489 4.43535ZM15.7056 4.58601C15.558 4.64773 15.3085 4.79152 15.1422 4.90813L15.3633 5.2234C15.5145 5.11738 15.7394 4.98924 15.8542 4.94125L15.7056 4.58601ZM15.1423 4.90812C14.9709 5.02826 14.7432 5.23714 14.6279 5.38303L14.93 5.62177C15.0184 5.50996 15.2171 5.3259 15.3633 5.22342L15.1423 4.90812ZM14.6279 5.38297C14.5213 5.5178 14.3876 5.71719 14.3281 5.83376L14.6712 6.00869C14.7153 5.92218 14.8329 5.74461 14.93 5.62183L14.6279 5.38297ZM14.3281 5.83372C14.2713 5.94509 14.186 6.15137 14.1354 6.29757L14.4994 6.42337C14.5457 6.28938 14.6244 6.10034 14.6711 6.00872L14.3281 5.83372ZM14.1354 6.29755C14.0803 6.457 14.0267 6.74362 14.0118 6.94518L14.3958 6.97366C14.4089 6.79651 14.4576 6.54404 14.4994 6.42339L14.1354 6.29755ZM14.0118 6.94519C13.9933 7.19412 14.0104 7.44004 14.063 7.68793L14.4396 7.60802C14.3945 7.39504 14.3801 7.1856 14.3958 6.97365L14.0118 6.94519ZM14.063 7.68792C14.1062 7.89172 14.2094 8.19596 14.2969 8.37507L14.6429 8.20617C14.5701 8.05707 14.4767 7.78292 14.4396 7.60802L14.063 7.68792ZM14.2968 8.37502C14.4093 8.60558 14.581 8.82596 14.8281 9.07092L15.0992 8.79745C14.8696 8.56979 14.7297 8.3841 14.6429 8.20622L14.2968 8.37502ZM14.8281 9.0709C15.0239 9.26509 15.3034 9.49297 15.4591 9.57571L15.6398 9.2357C15.5342 9.17954 15.2864 8.98309 15.0992 8.79747L14.8281 9.0709ZM15.459 9.5757C15.6071 9.65445 15.8892 9.75689 16.0944 9.80936L16.1898 9.4363C16.0044 9.38888 15.7531 9.29596 15.6398 9.23572L15.459 9.5757ZM16.0944 9.80936C16.2993 9.86178 16.5916 9.90586 16.7543 9.90538L16.7532 9.52031C16.6336 9.52066 16.3754 9.48377 16.1898 9.4363L16.0944 9.80936ZM16.7544 9.90538C16.9113 9.90487 17.1798 9.87294 17.3604 9.83463L17.2806 9.45794C17.12 9.49198 16.8784 9.51991 16.7531 9.52031L16.7544 9.90538ZM17.3604 9.83465C17.5507 9.79435 17.8562 9.68052 18.0518 9.57916L17.8745 9.2373C17.7044 9.32552 17.4315 9.42597 17.2806 9.45793L17.3604 9.83465ZM18.0518 9.57916C18.2839 9.45884 18.528 9.27493 18.7307 9.07066L18.4573 8.79946C18.2792 8.97903 18.0668 9.13765 17.8745 9.2373L18.0518 9.57916ZM18.7307 9.07063C18.9206 8.87917 19.1132 8.6239 19.2147 8.42252L18.8709 8.24915C18.7917 8.40627 18.6259 8.62941 18.4573 8.79949L18.7307 9.07063ZM19.2147 8.4225C19.3018 8.24965 19.4052 7.98932 19.4463 7.83483L19.0742 7.7358C19.0415 7.85865 18.9492 8.09381 18.8709 8.24917L19.2147 8.4225ZM19.4463 7.83485C19.4891 7.67426 19.5201 7.36625 19.5204 7.14144L19.1354 7.14095C19.1351 7.34737 19.1053 7.61912 19.0742 7.73578L19.4463 7.83485ZM19.5204 7.14149C19.5208 6.91601 19.4895 6.60386 19.4464 6.43823L19.0738 6.53527C19.1058 6.65838 19.1357 6.93517 19.1354 7.14091L19.5204 7.14149ZM19.4464 6.43822C19.4048 6.27854 19.3036 6.01868 19.2191 5.85104L18.8752 6.02445C18.9497 6.17208 19.0402 6.40633 19.0738 6.53529L19.4464 6.43822ZM19.219 5.851C19.1157 5.64632 18.9255 5.40312 18.7115 5.19155L18.4408 5.46539C18.6368 5.65915 18.7969 5.8692 18.8753 6.0245L19.219 5.851ZM18.7115 5.19157C18.522 5.00415 18.2379 4.78215 18.06 4.68886L17.8812 5.02991C18.0137 5.09939 18.2672 5.29374 18.4408 5.46537L18.7115 5.19157ZM18.06 4.68887C17.8951 4.60242 17.6344 4.49919 17.47 4.4564L17.373 4.82904C17.5056 4.86355 17.7389 4.95532 17.8812 5.0299L18.06 4.68887ZM17.4701 4.45641C17.2971 4.41134 16.9878 4.38181 16.7574 4.38451L16.7619 4.76955C16.9708 4.76711 17.2436 4.79532 17.373 4.82903L17.4701 4.45641ZM16.7574 4.38451C16.5402 4.3871 16.2671 4.40756 16.149 4.43533L16.2371 4.81018C16.3111 4.79278 16.5479 4.7721 16.762 4.76955L16.7574 4.38451ZM17.1207 6.5668C17.1875 6.61257 17.2879 6.71274 17.3318 6.77674L17.6494 6.55904C17.578 6.45494 17.4435 6.32118 17.3384 6.24917L17.1207 6.5668ZM17.3317 6.7767C17.3699 6.8324 17.4174 6.96128 17.4267 7.04389L17.8093 7.00081C17.7937 6.86162 17.7265 6.67157 17.6494 6.55908L17.3317 6.7767ZM17.4267 7.04398C17.4366 7.13134 17.4231 7.26898 17.4027 7.33092L17.7684 7.45154C17.8086 7.32951 17.8245 7.13508 17.8093 7.00073L17.4267 7.04398ZM17.4027 7.33084C17.3802 7.39903 17.3153 7.51502 17.2667 7.57269L17.5613 7.82066C17.6407 7.72639 17.7301 7.56742 17.7684 7.45163L17.4027 7.33084ZM17.2667 7.57274C17.2171 7.63175 17.12 7.71003 17.0668 7.73754L17.2437 8.0796C17.3473 8.02603 17.4831 7.91363 17.5614 7.82061L17.2667 7.57274ZM17.0667 7.73758C17.0507 7.74587 17.0092 7.76038 16.948 7.773C16.8897 7.78499 16.8283 7.79227 16.7794 7.79294L16.7846 8.17797C16.8625 8.1769 16.9486 8.16602 17.0256 8.15015C17.0997 8.13491 17.1814 8.11184 17.2437 8.07956L17.0667 7.73758ZM16.7794 7.79294C16.6492 7.79469 16.5581 7.77145 16.4485 7.70966L16.2594 8.04513C16.4295 8.14098 16.5878 8.18062 16.7846 8.17797L16.7794 7.79294ZM16.4484 7.70964C16.4096 7.68778 16.3611 7.65202 16.3159 7.61105C16.2692 7.56872 16.238 7.53174 16.2254 7.5113L15.8978 7.71377C15.9374 7.77784 15.9981 7.84272 16.0574 7.89641C16.1181 7.95146 16.1897 8.00588 16.2595 8.04515L16.4484 7.70964ZM16.2253 7.51128C16.183 7.4428 16.1332 7.32234 16.1188 7.2587L15.7432 7.34337C15.7679 7.45324 15.8356 7.61316 15.8978 7.71379L16.2253 7.51128ZM16.1188 7.25863C16.1068 7.2054 16.1077 7.07653 16.1269 6.99116L15.7512 6.90675C15.7224 7.03511 15.716 7.22306 15.7432 7.34344L16.1188 7.25863ZM16.1269 6.99117C16.145 6.91082 16.2062 6.77914 16.2541 6.71635L15.9479 6.48282C15.8657 6.59069 15.7812 6.77346 15.7512 6.90673L16.1269 6.99117ZM16.2541 6.71634C16.299 6.65746 16.412 6.5669 16.4898 6.53051L16.3267 6.18171C16.1966 6.24255 16.0331 6.37113 15.9479 6.48283L16.2541 6.71634ZM16.4898 6.53051C16.5887 6.48426 16.6827 6.46671 16.8219 6.47639L16.8486 6.09225C16.6537 6.0787 16.4929 6.10394 16.3267 6.18172L16.4898 6.53051ZM16.8219 6.47639C16.949 6.48522 17.0553 6.52194 17.1207 6.5668L17.3384 6.24916C17.2034 6.15668 17.0267 6.10462 16.8486 6.09225L16.8219 6.47639Z" fill="#F3C300" mask="url(#path-1-inside-1_1_47)"/>
</svg>
