<svg width="89" height="21" viewBox="0 0 89 21" fill="none" xmlns="http://www.w3.org/2000/svg">
<g clip-path="url(#clip0_0_401)">
<path d="M51.887 18.2761C51.887 18.4447 51.9315 18.5346 52.0316 18.5346C52.1095 18.5346 52.1763 18.5009 52.2541 18.456L79.8218 1.09418C80.3113 0.779531 80.7453 0.610971 81.4128 0.610971H87.4758C88.4103 0.610971 89.0333 1.21779 89.0333 2.12802V13.3316C89.0333 14.6802 88.733 15.4668 87.4758 16.1972L80.1223 20.4675C80.0333 20.5348 79.9443 20.5573 79.8775 20.5573C79.7885 20.5573 79.7106 20.5011 79.7106 20.2539V7.16236C79.7106 7.01628 79.6661 6.9039 79.5548 6.9039C79.477 6.9039 79.4213 6.93761 79.3435 6.98256L59.185 19.6696C58.6176 20.0292 58.1615 20.1303 57.6386 20.1303H44.2663C43.343 20.1303 42.7088 19.5235 42.7088 18.6245V2.47638C42.7088 2.36401 42.6533 2.26287 42.5643 2.26287C42.4863 2.26287 42.4196 2.28533 42.3418 2.33029L29.0473 10.0728C28.9138 10.1515 28.8805 10.2302 28.8805 10.2863C28.8805 10.3425 28.9028 10.3875 29.0028 10.4774L38.4925 19.6696C38.6148 19.7931 38.7038 19.8943 38.7038 19.9841C38.7038 20.0853 38.5703 20.1415 38.4035 20.1415H29.815C29.1475 20.1415 28.6246 20.0404 28.2575 19.692L22.4948 14.1071C22.428 14.0396 22.3835 14.0171 22.3278 14.0171C22.2617 14.023 22.1975 14.0421 22.1388 14.0734L12.5156 19.692C11.9371 20.0292 11.5366 20.1303 10.9581 20.1303H2.09149C1.157 20.1303 0.533997 19.5235 0.533997 18.6245V7.6231C0.533997 6.25213 0.834371 5.48799 2.09149 4.75756L9.48962 0.453648C9.56749 0.408698 9.62312 0.397461 9.68987 0.397461C9.78999 0.397461 9.85674 0.509835 9.85674 0.74582V15.4668C9.85674 15.6129 9.90124 15.6915 10.0125 15.6915C10.0681 15.6915 10.146 15.6465 10.2239 15.6017L35.2106 1.04923C35.8003 0.70087 36.1673 0.599733 36.8571 0.599733H50.3073C51.2418 0.599733 51.8648 1.20655 51.8648 2.10554L51.887 18.2761Z" fill="white"/>
</g>
<defs>
<clipPath id="clip0_0_401">
<rect width="89" height="20.2273" fill="white" transform="translate(0 0.38623)"/>
</clipPath>
</defs>
</svg>
