<svg width="264" height="60" viewBox="0 0 264 60" fill="none" xmlns="http://www.w3.org/2000/svg">
<g clip-path="url(#clip0_202_34)">
<path d="M153.912 53.0667C153.912 53.5669 154.044 53.8335 154.341 53.8335C154.572 53.8335 154.77 53.7334 155.001 53.6003L236.775 2.10011C238.227 1.16678 239.514 0.666781 241.494 0.666781H259.479C262.251 0.666781 264.099 2.46678 264.099 5.16678V38.4C264.099 42.4002 263.208 44.7334 259.479 46.9002L237.666 59.5669C237.402 59.7668 237.138 59.8335 236.94 59.8335C236.676 59.8335 236.445 59.6667 236.445 58.9335V20.1001C236.445 19.6668 236.313 19.3335 235.983 19.3335C235.752 19.3335 235.587 19.4334 235.356 19.5668L175.56 57.2003C173.877 58.2668 172.524 58.5668 170.973 58.5668H131.307C128.568 58.5668 126.687 56.7668 126.687 54.1002V6.20013C126.687 5.86679 126.522 5.56679 126.258 5.56679C126.027 5.56679 125.829 5.63343 125.598 5.76678L86.1629 28.7334C85.7669 28.9668 85.6681 29.2001 85.6681 29.3668C85.6681 29.5335 85.7341 29.6668 86.0309 29.9334L114.18 57.2003C114.543 57.5667 114.807 57.8667 114.807 58.1333C114.807 58.4333 114.411 58.6002 113.916 58.6002H88.4401C86.4601 58.6002 84.9089 58.3002 83.8201 57.2667L66.7261 40.7003C66.5281 40.5 66.3961 40.4333 66.2309 40.4333C66.0348 40.4509 65.8443 40.5075 65.6701 40.6002L37.125 57.2667C35.409 58.2668 34.221 58.5668 32.505 58.5668H6.20397C3.43198 58.5668 1.58398 56.7668 1.58398 54.1002V21.4668C1.58398 17.4001 2.47498 15.1335 6.20397 12.9668L28.149 0.200114C28.38 0.0667805 28.545 0.0334473 28.743 0.0334473C29.04 0.0334473 29.238 0.366781 29.238 1.06678V44.7334C29.238 45.1669 29.37 45.4002 29.7 45.4002C29.865 45.4002 30.096 45.2667 30.327 45.1335L104.445 1.96678C106.194 0.933447 107.283 0.633447 109.329 0.633447H149.226C151.998 0.633447 153.846 2.43345 153.846 5.10011L153.912 53.0667Z" fill="#05141F"/>
</g>
<defs>
<clipPath id="clip0_202_34">
<rect width="264" height="60" fill="white"/>
</clipPath>
</defs>
</svg>
