<svg width="96" height="96" viewBox="0 0 96 96" fill="none" xmlns="http://www.w3.org/2000/svg">
<path d="M48.1161 24.9844C52.0067 24.9844 55.1708 28.1484 55.1708 32.0391C55.1708 35.918 52.0067 39.082 48.1161 39.082C44.2255 39.082 41.0614 35.918 41.0614 32.0391C41.0614 28.1484 44.2255 24.9844 48.1161 24.9844ZM48.1161 49.0664C57.5145 49.0664 65.1552 41.4258 65.1552 32.0391C65.1552 22.6406 57.5145 15 48.1161 15C38.7177 15 31.0888 22.6406 31.0888 32.0391C31.0888 41.4258 38.7177 49.0664 48.1161 49.0664ZM55.0067 62.9648C58.4755 62.168 61.8153 60.7969 64.8974 58.8633C67.2294 57.3984 67.9325 54.3164 66.4677 51.9844C64.9911 49.6406 61.9208 48.9375 59.577 50.4141C52.6044 54.7969 43.6278 54.7969 36.6434 50.4141C34.3114 48.9375 31.2294 49.6406 29.7645 51.9844C28.2997 54.3164 29.0028 57.3984 31.3348 58.8633C34.4169 60.7969 37.7567 62.168 41.2255 62.9648L31.6981 72.4805C29.7528 74.4258 29.7528 77.5898 31.6981 79.5352C32.6825 80.5078 33.9481 81 35.2255 81C36.5028 81 37.7802 80.5078 38.7645 79.5352L48.1161 70.1836L57.4794 79.5352C59.4247 81.4922 62.577 81.4922 64.5341 79.5352C66.4794 77.5898 66.4794 74.4258 64.5341 72.4805L55.0067 62.9648Z" fill="white"/>
</svg>
