<svg width="28" height="29" viewBox="0 0 28 29" fill="none" xmlns="http://www.w3.org/2000/svg">
<path d="M20.54 27.7023C20.1139 27.6976 19.6956 27.5878 19.3221 27.3826L14.4506 24.6728C14.2873 24.5832 14.104 24.536 13.9177 24.5358C13.7264 24.5341 13.5378 24.5813 13.3697 24.6728L8.52858 27.3826C7.68361 27.8647 6.63413 27.8051 5.84922 27.2303C5.45264 26.9673 5.14484 26.5905 4.96624 26.1495C4.77667 25.7086 4.71342 25.2237 4.78356 24.7489L5.75787 18.766C5.80299 18.5913 5.80299 18.4079 5.75787 18.2332C5.71202 18.0622 5.61669 17.9086 5.48385 17.7917L1.25167 13.4834C0.918245 13.1508 0.690509 12.7271 0.597058 12.2655C0.467647 11.818 0.467647 11.3429 0.597058 10.8954C0.762162 10.4514 1.05314 10.0652 1.43436 9.78404C1.79069 9.48496 2.22267 9.29005 2.6827 9.22077L8.30022 8.35302C8.49651 8.33359 8.68486 8.26558 8.84827 8.15511C9.01317 8.04558 9.14482 7.89287 9.22887 7.71363L11.6646 2.47669C11.8721 2.03931 12.1994 1.66977 12.6085 1.41104C12.9976 1.15368 13.4514 1.01122 13.9177 1C14.3979 0.999722 14.8681 1.13708 15.2727 1.39582C15.6813 1.65073 16.0047 2.02177 16.2013 2.46147L18.6523 7.6984C18.7286 7.86501 18.8434 8.01111 18.9872 8.12467C19.1367 8.23234 19.3083 8.30517 19.4896 8.3378L25.1224 9.20555C25.5974 9.26421 26.0434 9.46597 26.4011 9.78404C26.7623 10.0777 27.0317 10.4686 27.1775 10.9106C27.4855 11.8135 27.2622 12.8128 26.599 13.4986L22.3821 17.8069C22.2628 17.9348 22.1697 18.0848 22.1081 18.2484C22.0702 18.424 22.0702 18.6056 22.1081 18.7812L23.0519 24.7489C23.1269 25.2222 23.0689 25.7071 22.8845 26.1495C22.7011 26.5877 22.3944 26.9632 22.0015 27.2303C21.5751 27.5355 21.0644 27.7004 20.54 27.7023V27.7023Z" stroke="white"/>
</svg>
