<svg width="96" height="96" viewBox="0 0 96 96" fill="none" xmlns="http://www.w3.org/2000/svg">
<path fill-rule="evenodd" clip-rule="evenodd" d="M75.9413 17.0914C74.882 17.2842 73.4577 17.6969 72.0706 18.213C67.9923 19.7304 12.9804 42.9932 10.3984 44.2925C8.71678 45.1385 7.3897 46.2756 7.11679 47.104C6.69738 48.3773 7.42073 49.5526 9.07547 50.2856C11.1224 51.1926 21.3922 54.2407 23.2936 54.5057C25.4004 54.7992 28.2031 54.333 30.0918 53.3748C31.3385 52.7424 53.471 37.893 60.5172 32.9615C61.1739 32.5021 61.7539 32.2228 62.0519 32.2228C62.9911 32.2228 63.4835 33.2598 62.9775 34.1722C62.8645 34.3758 60.6835 36.5788 58.1307 39.0678C43.3239 53.5036 40.3743 56.458 39.9811 57.2467C39.1876 58.8385 39.6197 60.7838 41.0734 62.1631C41.4235 62.4953 45.0694 65.0123 49.1756 67.7564C53.2817 70.5004 58.2891 73.8644 60.3032 75.2318C64.304 77.948 65.6636 78.6096 67.84 78.8989C69.5029 79.1202 70.0241 79.0095 70.882 78.2529C72.2445 77.0513 73.4657 73.9011 74.3928 69.1966C76.4455 58.7785 81.6102 24.4654 81.6102 21.2442C81.6102 19.2902 80.9276 18.048 79.4992 17.4026C78.6819 17.0333 77.0464 16.8901 75.9413 17.0914Z" fill="white"/>
</svg>
