<svg width="44" height="44" viewBox="0 0 44 44" fill="none" xmlns="http://www.w3.org/2000/svg">
<path fill-rule="evenodd" clip-rule="evenodd" d="M22 0C9.84974 0 0 9.84974 0 22C0 34.1503 9.84974 44 22 44C34.1503 44 44 34.1503 44 22C44 9.84974 34.1503 0 22 0ZM23.7913 28.9448C23.5744 29.1735 23.1508 29.2197 23.1508 29.2197H21.7483C21.7483 29.2197 18.6539 29.4023 15.928 26.6172C12.9553 23.5787 10.3304 17.5501 10.3304 17.5501C10.3304 17.5501 10.1789 17.1546 10.343 16.9642C10.5278 16.749 11.0317 16.7355 11.0317 16.7355L14.3843 16.7141C14.3843 16.7141 14.6999 16.7648 14.926 16.9282C15.1131 17.0634 15.2176 17.3146 15.2176 17.3146C15.2176 17.3146 15.7593 18.6598 16.4766 19.8766C17.8781 22.2526 18.53 22.772 19.0051 22.5174C19.6984 22.1467 19.4906 19.1589 19.4906 19.1589C19.4906 19.1589 19.5033 18.0751 19.1417 17.5918C18.8617 17.2177 18.3337 17.1084 18.1007 17.078C17.9113 17.0532 18.2212 16.6229 18.6229 16.4302C19.2267 16.1407 20.2918 16.1238 21.5509 16.1362C22.5322 16.1463 22.8145 16.206 23.1979 16.2973C24.0876 16.508 24.0598 17.1834 23.9999 18.641C23.982 19.077 23.9612 19.5829 23.9612 20.1672C23.9612 20.2986 23.9573 20.4385 23.9532 20.5825C23.9324 21.3293 23.9086 22.1845 24.4099 22.5028C24.667 22.665 25.2948 22.5264 26.8661 19.9081C27.611 18.6666 28.1688 17.2076 28.1688 17.2076C28.1688 17.2076 28.2916 16.9473 28.481 16.8358C28.675 16.722 28.9367 16.7569 28.9367 16.7569L32.4649 16.7355C32.4649 16.7355 33.5254 16.6105 33.6964 17.0814C33.8766 17.5737 33.3004 18.7252 31.8589 20.6111C30.4914 22.4007 29.8259 23.0595 29.887 23.6422C29.9317 24.068 30.3642 24.4531 31.1943 25.2089C32.9272 26.7882 33.3917 27.6191 33.5033 27.8187C33.5125 27.8352 33.5193 27.8475 33.5243 27.8554C34.3013 29.1206 32.6623 29.2197 32.6623 29.2197L29.5278 29.2626C29.5278 29.2626 28.8552 29.3932 27.9691 28.7961C27.505 28.4836 27.0514 27.9732 26.6194 27.487C25.9597 26.7445 25.3502 26.0586 24.83 26.2206C23.9566 26.4933 23.983 28.3398 23.983 28.3398C23.983 28.3398 23.9899 28.7353 23.7913 28.9448Z" fill="#05141F"/>
</svg>
