<svg width="96" height="96" viewBox="0 0 96 96" fill="none" xmlns="http://www.w3.org/2000/svg">
<path d="M91.5258 70.4025C87.9318 63.9345 78.6738 56.1625 74.8518 52.7805C73.8058 51.8545 73.6938 50.2525 74.6458 49.2285C81.9398 41.3905 87.7738 32.3845 89.7818 26.9425C90.6678 24.5385 88.8338 21.9985 86.2498 21.9985H78.7438C76.2698 21.9985 74.8218 22.8865 74.1318 24.3005C68.0698 36.7225 62.8698 42.0985 59.2298 45.2405C57.1918 47.0005 54.0138 45.5425 54.0138 42.8645C54.0138 37.7045 54.0138 31.0345 54.0138 26.3045C54.0138 24.0105 52.1378 22.1545 49.8238 22.1545L36.1118 21.9985C34.3858 21.9985 33.3998 23.9525 34.4358 25.3225L36.6998 28.5725C37.5518 29.6985 38.0118 31.0685 38.0118 32.4745L37.9998 47.1105C37.9998 49.6565 34.9138 50.9005 33.0818 49.1165C26.8838 43.0805 21.5058 30.7545 19.5698 24.8605C19.0098 23.1545 17.4118 22.0025 15.5998 21.9985L8.20578 21.9805C5.43178 21.9805 3.40378 24.6105 4.15778 27.2585C10.9138 50.9725 24.7758 73.5325 49.4798 75.9785C51.9138 76.2185 54.0138 74.2585 54.0138 71.8325V64.1405C54.0138 61.9345 55.7438 60.0385 57.9678 59.9825C58.0458 59.9805 58.1238 59.9805 58.2018 59.9805C64.7358 59.9805 72.0538 69.4905 74.6138 73.9385C75.3498 75.2185 76.7258 75.9985 78.2138 75.9985H88.1598C91.0618 75.9985 92.9238 72.9205 91.5258 70.4025Z" fill="white"/>
</svg>
